<?xml version="1.0" encoding="UTF-8" standalone="no"?>
<svg width="439px" height="121px" viewBox="0 0 439 121" version="1.1" xmlns="http://www.w3.org/2000/svg" xmlns:xlink="http://www.w3.org/1999/xlink" xmlns:sketch="http://www.bohemiancoding.com/sketch/ns">
    <title>nimbul</title>
    <description>Created with Sketch (http://www.bohemiancoding.com/sketch)</description>
    <defs></defs>
    <g id="Page 1" stroke="none" stroke-width="1" fill="none" fill-rule="evenodd">
        <path d="M147.542694,45.1531429 C148.432168,49.0075295 148.802776,53.0101017 148.654531,57.1609796 C148.506285,61.3118575 148.320981,65.499734 148.098612,69.7247347 C147.876244,73.9497354 147.876244,78.1746728 148.098612,82.3996735 C148.320981,86.6246742 149.395745,90.5901856 151.322939,94.2963265 C154.732588,85.8463251 159.402256,78.1747283 165.332082,71.2813061 C171.261907,64.3878839 177.562252,58.1987213 184.233306,52.7136327 C185.12278,51.9724045 186.049301,51.4906134 187.012898,51.2682449 C187.976495,51.0458764 188.903016,50.7864505 189.79249,50.4899592 C190.533718,50.1934679 191.237874,49.9340419 191.90498,49.7116735 C192.572085,49.489305 193.498606,49.6746093 194.684571,50.2675918 C197.649484,51.8982939 199.354283,55.0114056 199.79902,59.6070204 C200.243757,64.2026352 200.466122,70.7253455 200.466122,79.1753469 C202.689807,76.9516624 204.950519,74.4685851 207.248327,71.7260408 C209.546134,68.9834965 211.880968,66.3521759 214.252898,63.832 C216.624828,61.3118241 219.070845,59.0881729 221.59102,57.1609796 C224.111196,55.2337863 226.779578,53.8254738 229.596245,52.936 C230.485719,52.6395087 231.41224,52.6024479 232.375837,52.8248163 C233.339433,53.0471848 234.265955,53.1583673 235.155429,53.1583673 C235.748411,53.1583673 236.267263,53.0471848 236.712,52.8248163 C237.156737,52.6024479 237.675589,52.565387 238.268571,52.7136327 C239.158045,52.8618783 239.936323,53.3066085 240.603429,54.0478367 C241.270534,54.7890649 241.752325,55.6044037 242.048816,56.4938776 C242.641799,58.7175621 243.457138,61.793613 244.494857,65.7221224 C245.532577,69.6506319 246.459098,73.6532041 247.274449,77.7299592 C248.0898,81.8067143 248.719835,85.6239822 249.164571,89.1818776 C249.609308,92.7397729 249.609308,95.259911 249.164571,96.7423673 C248.86808,98.0765781 248.534532,98.9660386 248.163918,99.4107755 C247.793304,99.8555124 247.015026,100.670851 245.829061,101.856816 C245.53257,101.856816 245.199022,102.079181 244.828408,102.523918 C244.457794,102.968655 244.050125,103.413386 243.605388,103.858122 C243.012405,104.451105 242.493553,105.044079 242.048816,105.637061 C240.121623,102.820394 238.639189,99.7814041 237.601469,96.52 C236.56375,93.2585959 235.674289,89.8489974 234.933061,86.291102 C234.191833,82.7332067 233.524738,79.101243 232.931755,75.395102 C232.338773,71.6889611 231.597555,67.908754 230.708082,64.0543673 C226.408958,66.2780519 223.03642,68.8352509 220.590367,71.7260408 C218.144314,74.6168308 216.180089,77.6558208 214.697633,80.843102 C213.215176,84.0303833 211.880986,87.2546776 210.69502,90.5160816 C209.509055,93.7774857 208.026621,96.8905974 206.247673,99.8555102 C204.616971,102.375686 202.986294,104.376972 201.355592,105.859429 C199.72489,107.341885 198.390699,108.00898 197.35298,107.860735 C196.463506,107.712489 195.79641,106.89715 195.351673,105.414694 C194.906937,103.932237 194.313963,101.708586 193.572735,98.7436735 C192.090278,92.6656023 190.719027,86.142892 189.458939,79.1753469 C188.198851,72.2078019 186.827599,65.9074567 185.345143,60.2741224 C182.528476,61.1635963 179.748912,62.757213 177.006367,65.0550204 C174.263823,67.3528278 171.706624,70.0212093 169.334694,73.0602449 C166.962764,76.0992805 164.850295,79.4718182 162.997224,83.1779592 C161.144154,86.8841002 159.772902,90.5901856 158.883429,94.2963265 C160.810622,98.1507131 160.884744,101.337947 159.105796,103.858122 C158.364568,105.044088 157.326864,106.044731 155.992653,106.860082 C154.658442,107.675433 153.101886,108.527832 151.322939,109.417306 C150.285219,110.455026 149.173394,110.825634 147.987429,110.529143 C146.801463,110.232652 145.837881,109.528495 145.096653,108.416653 C144.355425,107.304811 143.910695,106.378289 143.762449,105.637061 C142.872975,100.893201 141.983515,95.9641072 141.094041,90.8496327 C140.204567,85.7351581 139.648654,80.5836994 139.426286,75.395102 C139.203917,70.2065047 139.389222,65.055046 139.982204,59.9405714 C140.575187,54.8260969 141.835256,49.8970033 143.762449,45.1531429 C144.05894,44.263669 144.355427,43.8189388 144.651918,43.8189388 C144.94841,43.8189388 145.244896,43.9301213 145.541388,44.1524898 C145.837879,44.3748583 146.134366,44.5601625 146.430857,44.7084082 C146.727348,44.8566538 146.912653,44.9307755 146.986776,44.9307755 C147.060898,44.9307755 147.246203,45.0048972 147.542694,45.1531429 Z M20.5709388,82.9555918 C23.0911146,80.435416 25.6483136,77.7299736 28.2426122,74.8391837 C30.8369109,71.9483937 33.5423533,69.1688297 36.3590204,66.5004082 C39.1756876,63.8319867 42.0664342,61.4230312 45.0313469,59.2734694 C47.9962597,57.1239076 51.1093714,55.3820475 54.3707755,54.0478367 C55.1120037,53.7513455 55.8161599,53.6772237 56.4832653,53.8254694 C57.1503707,53.973715 57.8545269,53.8995933 58.5957551,53.603102 L61.708898,53.603102 C62.5983718,53.603102 63.4137106,53.8995889 64.1549388,54.4925714 C66.2303777,55.8267822 67.8981161,57.7168857 69.1582041,60.1629388 C70.418292,62.6089918 71.4930568,65.3144342 72.3825306,68.2793469 C72.9755132,69.910049 73.3090609,71.4666048 73.3831837,72.9490612 C73.4573065,74.4315176 73.8649759,76.1363169 74.6062041,78.0635102 C75.4956779,80.8801773 76.496321,83.7338631 77.6081633,86.6246531 C78.7200056,89.515443 79.127675,92.2950071 78.8311837,94.9634286 C78.682938,95.7046568 78.4605729,96.3346913 78.1640816,96.853551 C77.8675904,97.3724108 77.4969818,98.0024453 77.0522449,98.7436735 C76.7557536,99.336656 76.2369017,100.077873 75.4956735,100.967347 C74.7544453,101.856821 74.0132282,102.523916 73.272,102.968653 C72.5307718,103.561636 72.0489807,104.043427 71.8266122,104.414041 C71.6042438,104.784655 70.9000876,105.192324 69.7141224,105.637061 C67.7869291,102.820394 66.304495,99.7814041 65.2667755,96.52 C64.229056,93.2585959 63.3395955,89.8489974 62.5983673,86.291102 C61.8571392,82.7332067 61.1900438,79.101243 60.5970612,75.395102 C60.0040787,71.6889611 59.2628616,67.908754 58.3733878,64.0543673 C58.0768965,63.0166479 57.1503751,62.4236742 55.5937959,62.2754286 C54.0372167,62.1271829 52.2582957,62.608974 50.2569796,63.7208163 C48.2556635,64.8326586 46.1431948,66.5745188 43.9195102,68.946449 C41.6958256,71.3183792 39.6945395,74.3573692 37.9155918,78.0635102 C36.7296267,80.7319317 35.6178011,83.5114958 34.5800816,86.4022857 C33.5423622,89.2930757 32.3934757,92.1838223 31.1333878,95.0746122 C29.8732998,97.9654022 28.3908657,100.782027 26.6860408,103.524571 C24.981216,106.267116 22.942869,108.750193 20.5709388,110.973878 C19.8297106,111.715106 19.3108586,111.789227 19.0143673,111.196245 C18.7178761,110.603262 17.976659,110.08441 16.7906939,109.639673 C15.90122,109.343182 15.4194289,109.046695 15.3453061,108.750204 C15.2711833,108.453713 15.0117573,107.564252 14.5670204,106.081796 C13.6775466,102.968637 12.7510252,99.4107955 11.7874286,95.4081633 C10.8238319,91.405531 9.78612801,87.1805937 8.67428571,82.7332245 C7.56244342,78.2858553 6.41355695,73.801492 5.22759184,69.28 C4.04162672,64.758508 2.8556794,60.4965098 1.66971429,56.4938776 L0.335510204,52.4912653 C0.632001482,51.8982827 1.18791429,51.3794308 2.00326531,50.9346939 C2.81861632,50.489957 3.67101596,50.1193484 4.5604898,49.8228571 C5.44996363,49.5263659 6.41354583,49.6004876 7.45126531,50.0452245 C8.48898478,50.4899614 9.30432357,50.7123265 9.89730612,50.7123265 C11.5280082,50.7123265 12.9733815,51.7500304 14.2334694,53.8254694 C15.4935573,55.9009083 16.5683221,58.532229 17.4577959,61.7195102 C18.3472698,64.9067914 19.051426,68.3905117 19.5702857,72.1707755 C20.0891455,75.9510393 20.4226931,79.5459421 20.5709388,82.9555918 Z M271.401306,3.34808163 C271.697797,3.64457291 271.957223,3.86693803 272.179592,4.01518367 C272.40196,4.16342931 272.513143,4.45991614 272.513143,4.90465306 C272.513143,9.50026788 272.735508,14.3181789 273.180245,19.3585306 C273.624982,24.3988823 274.069712,29.4762193 274.514449,34.5906939 C274.959186,39.7051684 275.366855,44.7825054 275.737469,49.8228571 C276.108083,54.8632089 276.293388,59.6069982 276.293388,64.0543673 C277.331107,62.571911 278.554115,60.8671117 279.962449,58.9399184 C281.370783,57.0127251 283.038521,55.2338041 284.965714,53.603102 C286.892908,51.9724 289.005376,50.6011484 291.303184,49.4893061 C293.600991,48.3774638 296.15819,47.7474293 298.974857,47.5991837 C300.012577,46.5614642 300.976159,46.0426122 301.865633,46.0426122 C303.348089,45.8943666 304.756401,46.3761577 306.090612,47.488 C307.424823,48.5998423 308.833135,49.8969722 310.315592,51.3794286 C312.242785,53.3066219 313.873463,55.6043948 315.207673,58.2728163 C316.541884,60.9412378 317.431345,63.683741 317.876082,66.5004082 C318.320819,69.3170753 318.283758,72.0595785 317.764898,74.728 C317.246038,77.3964215 316.02303,79.6941944 314.095837,81.6213878 C312.168643,87.254722 309.500262,91.9614505 306.090612,95.7417143 C302.680963,99.5219781 299.048999,102.375664 295.194612,104.302857 L281.852571,110.973878 C280.963098,111.418614 280.110698,111.974527 279.295347,112.641633 C276.849162,114.253361 276.793715,114.281592 276.738122,114.309388 C275.996894,114.605879 275.440981,114.494696 275.070367,113.975837 C274.699753,113.456977 274.14384,113.049308 273.402612,112.752816 C271.623665,112.011588 270.511839,110.899763 270.067102,109.417306 C269.622365,108.083095 269.325878,106.97127 269.177633,106.081796 C269.029387,105.192322 268.807022,103.932253 268.510531,102.301551 C266.879829,95.0375147 265.730942,87.0323703 265.063837,78.2858776 C264.396731,69.5393848 264.026123,60.8300842 263.952,52.1577143 C263.877877,43.4853444 263.951999,35.1095914 264.174367,27.0302041 C264.396736,18.9508167 264.656162,11.9463154 264.952653,6.0164898 C264.952653,4.08929649 265.063836,2.82922745 265.286204,2.2362449 C265.508573,1.64326234 265.990364,1.19853209 266.731592,0.902040816 C267.028083,0.753795177 267.398692,0.605551762 267.843429,0.457306122 C268.288165,0.309060483 268.881139,0.383182191 269.622367,0.679673469 C270.067104,0.827919109 270.400652,1.16146679 270.62302,1.68032653 C270.845389,2.19918627 271.104815,2.75509908 271.401306,3.34808163 Z M116.856,70.2806531 C117.745474,73.6903028 118.44963,76.8034145 118.96849,79.6200816 C119.48735,82.4367488 119.857958,85.1421911 120.080327,87.7364898 C120.302695,90.3307885 120.450938,92.9621091 120.525061,95.6305306 C120.599184,98.2989521 120.636245,101.189699 120.636245,104.302857 C120.636245,104.89584 120.302697,105.525874 119.635592,106.19298 C118.968486,106.860085 118.486695,107.564241 118.190204,108.305469 C117.597222,109.63968 117.11543,110.455019 116.744816,110.75151 C116.374202,111.048001 115.744168,111.41861 114.854694,111.863347 C112.779255,112.752821 110.926212,114.01289 109.29551,115.643592 C107.368317,112.826925 106.071187,109.56557 105.404082,105.859429 C104.736976,102.153288 104.292246,98.2989588 104.069878,94.2963265 C103.847509,90.2936943 103.625144,86.2540612 103.402776,82.1773061 C103.180407,78.100551 102.624494,74.1350397 101.73502,70.2806531 C101.290283,68.2052141 101.438527,66.7969017 102.179755,66.0556735 C102.920983,65.3144453 103.736322,64.7955933 104.625796,64.499102 C105.663515,64.2026108 106.812402,64.4249759 108.07249,65.1662041 C109.332578,65.9074323 110.555586,66.6486494 111.741551,67.3898776 C112.77927,67.9828601 113.779914,68.3164078 114.74351,68.3905306 C115.707107,68.4646534 116.411263,69.0946879 116.856,70.2806531 Z M310.315592,68.2793469 C310.315592,67.3898731 309.907922,66.2409866 309.092571,64.8326531 C308.27722,63.4243195 307.313638,62.0530679 306.201796,60.7188571 C305.089954,59.3846464 303.866945,58.1986991 302.532735,57.1609796 C301.198524,56.1232601 300.012577,55.4561647 298.974857,55.1596735 C297.344155,55.6044104 295.268747,56.6791751 292.748571,58.384 C290.228396,60.0888249 288.152988,61.9789284 286.522286,64.0543673 C282.223162,69.2429647 279.925389,74.7279711 279.628898,80.509551 C279.332407,86.2911309 280.147745,91.9985024 282.074939,97.6318367 C283.40915,97.1870998 285.15101,96.4458827 287.300571,95.4081633 C289.450133,94.3704438 291.710845,93.1844965 294.082776,91.8502857 C296.454706,90.516075 298.752479,89.1448234 300.976163,87.7364898 C303.199848,86.3281562 305.052891,85.0310263 306.535347,83.8450612 C308.166049,81.9178679 309.203753,79.8053992 309.64849,77.5075918 C310.093227,75.2097844 310.315592,72.1337336 310.315592,68.2793469 Z M121.525714,40.0386939 C122.711679,41.224659 123.19347,42.1882412 122.971102,42.9294694 C122.748734,43.6706976 122.266942,43.9671844 121.525714,43.8189388 C119.598521,43.8189388 117.486052,44.004243 115.188245,44.3748571 C112.890437,44.7454712 110.444421,45.0419581 107.850122,45.2643265 C105.255824,45.486695 102.550381,45.5237558 99.7337143,45.3755102 C96.9170471,45.2272646 94.1004222,44.7084126 91.2837551,43.8189388 C90.09779,42.6329737 90.1348508,41.5582089 91.3949388,40.5946122 C92.6550267,39.6310156 93.6556698,38.1856423 94.396898,36.258449 C94.8416349,34.9242382 95.4716694,33.9977169 96.2870204,33.4788571 C97.1023714,32.9599974 97.9547711,32.6264497 98.8442449,32.4782041 C100.474947,32.4782041 102.513294,32.8117518 104.959347,33.4788571 C107.4054,34.1459625 109.443747,34.5536319 111.074449,34.7018776 C113.594625,34.9983688 115.670033,35.4060382 117.300735,35.924898 C118.931437,36.4437577 120.339749,37.8150093 121.525714,40.0386939 Z M338.11151,50.4899592 C338.408001,49.3039941 338.963914,48.4886553 339.779265,48.0439184 C340.594616,47.5991814 341.447016,47.2285729 342.33649,46.9320816 C343.522455,46.6355904 344.448976,46.3761644 345.116082,46.1537959 C345.783187,45.9314275 346.709708,45.8202449 347.895673,45.8202449 C346.561463,50.1193684 345.523759,55.0114011 344.782531,60.4964898 C344.041302,65.9815784 343.707755,71.5777674 343.781878,77.2852245 C343.856,82.9926816 344.374852,88.5147488 345.338449,93.8515918 C346.302046,99.1884348 347.747419,103.858102 349.674612,107.860735 C352.491279,105.933541 355.270843,103.561647 358.013388,100.74498 C360.755932,97.9283124 363.313131,95.000505 365.685061,91.9614694 C368.056991,88.9224338 370.16946,85.9946263 372.022531,83.1779592 C373.875601,80.361292 375.246853,77.9893974 376.136327,76.0622041 C377.0258,73.0972913 377.581713,69.7247536 377.804082,65.9444898 C378.02645,62.164226 378.137633,58.7916883 378.137633,55.8267755 C377.989387,54.4925648 378.10057,53.4548608 378.471184,52.7136327 L379.694204,50.2675918 C379.990695,49.8228549 380.176,49.3781247 380.250122,48.9333878 C380.324245,48.4886508 380.583671,48.1180423 381.028408,47.821551 C381.324899,47.5250597 381.658447,47.1173903 382.029061,46.5985306 C382.399675,46.0796709 382.807345,45.8202449 383.252082,45.8202449 C384.141555,45.8202449 384.734529,46.2649751 385.03102,47.154449 C385.327512,48.0439228 385.772242,48.7110182 386.365224,49.1557551 C387.106453,49.8969833 387.810609,50.4528961 388.477714,50.8235102 C389.14482,51.1941243 389.478367,52.0465239 389.478367,53.3807347 C389.478367,63.7579294 389.58955,73.3937514 389.811918,82.2884898 C390.034287,91.1832281 390.886686,99.9295897 392.369143,108.527837 C392.517388,109.417311 392.295023,110.380893 391.702041,111.418612 C391.109058,112.456332 390.516085,113.345792 389.923102,114.08702 C389.033628,115.12474 388.218289,116.125383 387.477061,117.08898 C386.735833,118.052576 385.994616,118.682611 385.253388,118.979102 C383.770931,119.72033 382.881471,119.868574 382.58498,119.423837 C382.288488,118.9791 382.066123,118.386126 381.917878,117.644898 C381.324895,114.828231 380.546617,111.010963 379.58302,106.19298 C378.619424,101.374996 377.989389,96.5200245 377.692898,91.6279184 C375.91395,94.5928312 373.949725,97.5947603 371.800163,100.633796 C369.650601,103.672832 367.352829,106.452396 364.906776,108.972571 C362.460722,111.492747 359.977645,113.753459 357.457469,115.754776 C354.937294,117.756092 352.491277,119.201465 350.119347,120.090939 C349.081627,120.535676 348.377471,120.609797 348.006857,120.313306 C347.636243,120.016815 347.006209,119.720328 346.116735,119.423837 C344.782524,118.830854 343.485394,118.274941 342.225306,117.756082 C340.965218,117.237222 339.964575,116.458944 339.223347,115.421224 C337.592645,112.604557 336.258454,109.862054 335.220735,107.193633 C333.590033,102.894509 332.58939,98.3730849 332.218776,93.6292245 C331.848161,88.885364 331.811101,84.1415747 332.107592,79.3977143 C332.404083,74.6538538 332.922935,70.058308 333.664163,65.6109388 C334.405391,61.1635696 335.146609,57.0868757 335.887837,53.3807347 C336.036082,52.6395065 336.406691,52.1577154 338.11151,50.4899592 Z M424.612408,7.35069388 C426.391356,15.3559584 427.799668,23.3611028 428.837388,31.3663673 C429.875107,39.3716319 430.838689,47.3767763 431.728163,55.3820408 C432.617637,63.3873053 433.544158,71.3924498 434.507755,79.3977143 C435.471352,87.4029788 436.768482,95.4081232 438.399184,103.413388 C438.102692,105.340581 437.880327,106.897137 437.732082,108.083102 C437.583836,109.269067 437.213227,110.010284 436.620245,110.306776 C435.879017,110.751512 435.17486,111.233304 434.507755,111.752163 C433.84065,112.271023 433.136494,112.678692 432.395265,112.975184 C432.098774,113.123429 431.802287,113.382855 431.505796,113.753469 C431.209305,114.124083 430.875757,114.383509 430.505143,114.531755 C430.134529,114.680001 429.800981,114.680001 429.50449,114.531755 C429.207999,114.383509 428.83739,113.938779 428.392653,113.197551 C425.575986,104.74755 423.018787,96.2235532 420.72098,87.6253061 C418.423172,79.027059 416.570129,70.3548192 415.161796,61.6083265 C413.753462,52.8618338 412.864002,44.0042897 412.493388,35.0354286 C412.122774,26.0665674 412.3822,16.8384148 413.271673,7.35069388 C413.271673,5.12700929 413.938769,3.71869684 415.27298,3.12571429 C415.865962,2.82922301 416.64424,3.05158813 417.607837,3.79281633 C418.571433,4.53404452 419.423833,5.05289648 420.165061,5.34938776 C421.202781,5.79412467 422.018119,6.05355065 422.611102,6.12767347 C423.204085,6.20179629 423.87118,6.60946568 424.612408,7.35069388 Z M424.612408,7.35069388" id="nimbul" fill="#BFBD33"></path>
    </g>
</svg>